<?xml version="1.0" encoding="UTF-8" standalone="no"?>
<!-- Created with Inkscape (http://www.inkscape.org/) -->

<svg
   version="1.1"
   id="svg329"
   width="430"
   height="261"
   viewBox="0 0 430 261"
   sodipodi:docname="ess-logo-auth.svg"
   inkscape:version="1.1.1 (c3084ef, 2021-09-22)"
   xmlns:inkscape="http://www.inkscape.org/namespaces/inkscape"
   xmlns:sodipodi="http://sodipodi.sourceforge.net/DTD/sodipodi-0.dtd"
   xmlns="http://www.w3.org/2000/svg"
   xmlns:svg="http://www.w3.org/2000/svg">
  <defs
     id="defs333" />
  <sodipodi:namedview
     id="namedview331"
     pagecolor="#505050"
     bordercolor="#eeeeee"
     borderopacity="1"
     inkscape:pageshadow="0"
     inkscape:pageopacity="0"
     inkscape:pagecheckerboard="0"
     showgrid="false"
     inkscape:zoom="1.2964857"
     inkscape:cx="174.70305"
     inkscape:cy="166.21857"
     inkscape:window-width="1280"
     inkscape:window-height="755"
     inkscape:window-x="0"
     inkscape:window-y="23"
     inkscape:window-maximized="0"
     inkscape:current-layer="g335"
     showguides="false" />
  <g
     inkscape:groupmode="layer"
     id="layer1"
     inkscape:label="bg">
    <path
       style="fill:#ffffff;stroke-width:4.07216"
       d="M 0,130.50003 V 0 H 214.99998 430 V 130.50003 261 H 214.99998 0 Z"
       id="path204" />
  </g>
  <g
     inkscape:groupmode="layer"
     inkscape:label="Image"
     id="g335"
     style="display:inline">
    <g
       id="g4336">
      <path
         style="fill:#1298d9;fill-opacity:1"
         d="M 0,130.5 V 0 H 215 430 V 130.5 261 H 215 0 Z m 222.39401,112.99014 c 9.47029,-1.95614 18.45032,-5.64565 26.64718,-10.94817 C 256.14983,227.94342 267,217.92478 267,215.95949 c 0,-0.66756 -3.32214,1.94196 -7.38254,5.79894 -8.80627,8.3651 -18.22858,14.14181 -29.11746,17.8516 -10.41762,3.54922 -29.17738,4.47629 -39.87632,1.9706 -31.32753,-7.33692 -56.27636,-33.00871 -65.2609,-67.15201 -2.19848,-8.35476 -2.62109,-12.14787 -2.66601,-23.92862 -0.0594,-15.58697 1.86078,-25.86996 7.15336,-38.30732 2.70535,-6.3575 9.99685,-18.769112 8.75932,-14.91016 C 133.53462,113.10721 133.5,113.31536 133.5,128 c 0,17.09878 1.28863,22.9924 8.02798,36.71657 8.27869,16.85889 21.37581,30.06468 37.96014,38.2751 7.79429,3.85873 21.38608,8.00833 26.23086,8.00833 4.18339,0 1.53138,-1.70913 -3.73629,-2.40791 -2.78421,-0.36934 -8.58921,-1.91963 -12.90001,-3.4451 C 156.62115,193.65977 134.96151,163.2103 134.91701,129 c -0.019,-14.60681 2.26489,-25.31945 7.72127,-36.216756 C 145.2359,87.595357 145.39337,87 144.16797,87 c -1.47815,0 -9.26749,11.282881 -13.26761,19.21816 -22.56701,44.76758 -6.15347,102.87448 36.09964,127.79925 16.43584,9.69537 37.1593,13.23921 55.39401,9.47273 z M 252,211.86704 c 19.88764,-3.59896 40.54493,-15.07367 55.04912,-30.57871 C 343.71262,142.09494 341.11901,82.848401 301.5,54.527903 293.26906,48.644252 286.64746,45.468659 276.4456,42.512274 266.52333,39.636913 267,39.718666 267,40.892281 c 0,0.490754 3.25008,1.688754 7.22241,2.662222 26.86674,6.584037 47.93165,27.843876 54.88774,55.39568 1.82592,7.232127 2.06335,10.403327 1.64719,21.999997 -0.41789,11.64456 -0.92311,14.88563 -3.59303,23.04982 -8.91345,27.25588 -29.95505,49.60663 -57.16431,60.72091 -10.28793,4.20236 -20.57018,6.33802 -33,6.85423 l -10.5,0.43606 9,-2.37891 c 11.27973,-2.98151 20.91675,-7.32358 28.84633,-12.99706 7.13393,-5.1042 16.69205,-14.60557 20.93994,-20.8156 4.27484,-6.24944 10.40436,-19.37222 12.29363,-26.31963 2.18521,-8.03565 2.96834,-26.53075 1.48423,-35.05311 -1.24555,-7.15252 -4.71133,-18.297407 -6.18742,-19.89689 -1.47984,-1.60355 -1.01407,0.997061 1.5544,8.67895 4.36834,13.06498 5.02965,31.37785 1.61954,44.84745 -3.55043,14.02386 -13.19183,30.20206 -23.8123,39.9569 -13.05506,11.99099 -28.48654,19.00323 -46.91159,21.31717 -11.01139,1.38289 -11.00996,2.45422 0.005,3.64051 7.87724,0.84836 18.16555,0.41476 26.66836,-1.12394 z m -64.5,-56.58461 c 2.2,-1.14829 5.09696,-3.263 6.4377,-4.69936 l 2.43769,-2.61156 3.06231,2.90229 c 5.323,5.04487 9.29081,6.46693 19.35125,6.93552 10.2337,0.47665 15.86066,-0.96072 21.135,-5.39879 2.54583,-2.14216 2.98153,-2.22935 4.14362,-0.82912 3.07025,3.69943 9.29314,5.78226 18.57891,6.21845 11.47522,0.53903 17.40091,-1.21588 22.80996,-6.75525 3.19305,-3.26998 3.90777,-4.77961 4.32662,-9.13867 0.97525,-10.14957 -4.73231,-15.38827 -20.64647,-18.95047 C 257.43739,120.33674 255,118.97089 255,115.03365 255,111.06791 258.20604,109 264.35443,109 c 4.31535,0 5.30885,0.42352 8.21034,3.5 3.0677,3.25271 3.7296,3.5 9.36808,3.5 5.44948,0 6.06715,-0.20867 6.06715,-2.04966 0,-1.12731 -0.65884,-3.32371 -1.46408,-4.88088 -6.22485,-12.037528 -29.73567,-14.857071 -41.05001,-4.92294 L 242,107.20718 l -3.50446,-3.07695 c -4.89823,-4.300707 -13.17743,-6.53081 -21.61831,-5.823157 -7.46554,0.625885 -11.8242,2.444197 -16.51019,6.887607 l -3.13297,2.97078 -4.68164,-3.57358 c -12.13835,-9.265405 -30.62968,-8.447962 -40.88505,1.8074 -5.64733,5.64734 -7.9316,10.97743 -8.45439,19.72735 -0.63408,10.61264 1.50973,16.72652 8.21695,23.43375 6.82638,6.82637 11.52942,8.47818 23.07006,8.10267 6.76219,-0.22002 9.99458,-0.81196 13,-2.38062 z m -21.22934,-10.24625 c -4.25013,-1.92933 -8.25973,-6.91831 -8.26692,-10.28618 -0.003,-1.61493 1.73293,-1.75 22.49626,-1.75 21.83333,0 22.5,-0.0593 22.5,-2 0,-2.38213 0.11369,-2.39716 4.44415,-0.58778 1.85896,0.77672 6.87891,2.19067 11.15545,3.14211 8.69408,1.93425 12.65329,4.76261 11.71098,8.36602 -0.85685,3.27661 -4.25829,5.07965 -9.58275,5.07965 -5.58219,0 -10.30751,-2.10033 -11.22435,-4.98903 C 208.91264,140.14941 208.00794,140 197.32653,140 c -11.07388,0 -11.61681,0.0993 -13.4781,2.46556 -1.88394,2.39504 -7.28543,4.54019 -11.34843,4.5069 -1.1,-0.009 -3.9032,-0.88034 -6.22934,-1.93628 z M 255.43523,143.5 c -2.31911,-2.45897 -4.17603,-3.5 -6.24308,-3.5 -2.4507,0 -3.03964,-0.48743 -3.52576,-2.91807 C 244.19988,129.7494 236.93893,125.35615 220.5,121.85498 214.78003,120.63674 210,117.51607 210,115 c 0,-0.6 1.10455,-2.19545 2.45455,-3.54545 1.93959,-1.9396 3.48475,-2.45455 7.36514,-2.45455 5.1671,0 10.18031,2.74417 10.18031,5.57258 0,1.04136 1.3185,1.42742 4.875,1.42742 4.56379,0 4.91152,0.1826 5.44708,2.86038 1.3788,6.89403 8.46323,11.61153 21.86079,14.55705 7.80255,1.71543 12.81713,4.5326 12.81713,7.2006 0,0.81009 -1.10455,2.57742 -2.45455,3.92742 -2.02961,2.02961 -3.43742,2.45455 -8.13192,2.45455 -5.19302,0 -5.95899,-0.2986 -8.9783,-3.5 z m -95.61967,-25.75 c 3.21875,-5.19935 7.69479,-7.75 13.60019,-7.75 5.96603,0 11.60898,3.21336 14.09908,8.02868 L 189.05136,121 H 173.42748 157.8036 Z m -44.22373,8 c -4.64713,-16.30098 -5.52916,-26.595746 -3.2892,-38.39022 6.17271,-32.502187 30.25102,-55.940188 64.62347,-62.904937 11.39811,-2.309553 32.19446,-1.586946 43.5739,1.514056 23.20463,6.323472 43.84708,21.068527 56.60402,40.432662 3.24279,4.922329 5.89598,9.369327 5.89598,9.882218 0,0.51289 -2.08359,-1.38492 -4.63019,-4.217357 C 268.87003,61.500381 255.57463,53.106003 241,48.472067 c -11.42506,-3.632543 -28.8013,-4.495081 -41.06572,-2.038459 -14.51365,2.907153 -28.5526,10.023187 -39.89734,20.223086 -5.80175,5.216276 -11.52946,12.184117 -10.69859,13.014988 0.3187,0.3187 1.81298,-0.939551 3.32063,-2.796114 10.87953,-13.397406 26.81947,-23.486736 44.24763,-28.006933 8.90001,-2.308323 25.124,-2.719111 35.09339,-0.888557 19.88483,3.651204 41.67218,17.931773 52.24016,34.240948 3.26767,5.042866 5.36987,6.309853 4.19611,2.528974 C 287.2797,81.024464 280.94194,68.802271 277.67646,64 262.93674,42.323485 238.78852,27.09856 211.64967,22.371535 199.63629,20.279055 181.59684,20.975008 170.62612,23.954204 146.19676,30.588215 127.92705,45.145532 117.23034,66.5 c -6.27098,12.519128 -8.97792,28.035125 -7.26891,41.6648 1.2183,9.71614 3.91549,19.8352 5.28698,19.8352 0.54472,0 0.69819,-1.00553 0.34342,-2.25 z"
         id="path4342" />
      <path
         style="fill:#1298d9;fill-opacity:1"
         d="M 0,130.5 V 0 H 215 430 V 130.5 261 H 215 0 Z m 229.5,111.53133 c 12.2061,-3.83718 26.91809,-13.04879 34.33885,-21.50057 5.44314,-6.1994 3.4497,-6.1232 -3.08885,0.11807 C 244.93625,235.7436 227.39277,243 206.71256,243 194.78276,243 184.36602,240.43502 172.5,234.57563 142.03819,219.53373 122.8383,186.90011 122.74019,150 c -0.0321,-12.06541 1.02699,-19.20701 4.44889,-30 1.97867,-6.24092 9.71992,-22.424332 10.40084,-21.743409 0.18109,0.18109 -0.63984,3.234939 -1.82429,6.786329 -1.84409,5.52925 -2.1616,8.82801 -2.20959,22.95708 -0.0548,16.15104 0.0138,16.70091 3.24506,26 7.40457,21.3091 20.44628,37.03782 39.29525,47.39133 8.07423,4.43508 19.57155,8.43464 26.63204,9.26446 7.90984,0.92964 6.41826,-1.05206 -1.86038,-2.47169 -24.47477,-4.19696 -46.85498,-21.44347 -57.98504,-44.6841 -5.39129,-11.25756 -7.04247,-18.2215 -7.5873,-32 -0.56061,-14.1776 0.81494,-22.02966 6.23049,-35.565383 2.00261,-5.005372 3.41514,-9.326646 3.13896,-9.602831 -1.0423,-1.042304 -9.87184,11.519288 -14.17623,20.168214 -18.49878,37.17013 -10.87104,84.13402 18.4528,113.61364 11.32933,11.38951 26.6757,20.05795 41.55831,23.47433 9.11047,2.09135 30.05495,1.25537 39,-1.55664 z m 28.82174,-31.48484 c 16.80184,-4.30572 30.85131,-12.085 43.67737,-24.18447 C 322.68261,166.85026 333,143.7974 333,117.09459 333,87.738182 317.47003,61.708916 292.15378,48.633583 c -8.50056,-4.390368 -23.71144,-9.409261 -24.90363,-8.217062 -0.98303,0.983031 0.058,1.447826 9.13318,4.077708 4.81876,1.396421 10.64132,3.494823 12.93902,4.663114 11.05984,5.623482 22.80945,15.989756 29.60687,26.121091 13.57327,20.230548 15.90574,49.626936 5.92883,74.721566 -10.93171,27.49623 -37.5925,50.96551 -66.42824,58.47627 -10.16044,2.64645 -32.40345,4.78225 -26.92981,2.58582 1.1,-0.4414 5.825,-1.98751 10.5,-3.4358 27.79734,-8.61147 49.31794,-31.68549 56.07839,-60.12629 3.03835,-12.78217 2.38558,-32.27759 -1.48029,-44.21008 -1.46294,-4.515539 -3.09599,-8.479597 -3.62899,-8.809014 -1.54934,-0.957543 -1.12706,1.472371 1.74118,10.019094 2.43969,7.26976 2.68954,9.41485 2.73723,23.5 0.0459,13.54786 -0.24261,16.44458 -2.29055,23 -10.272,32.88042 -37.69459,55.17282 -72.03205,58.55635 -8.00011,0.78831 -9.26021,2.04582 -2.87492,2.86902 2.3375,0.30135 5.375,0.74596 6.75,0.98802 5.38473,0.94794 22.57543,-0.62553 31.32174,-2.8669 z m -72.5884,-54.56798 c 2.32833,-1.01822 5.8045,-3.04969 7.72481,-4.51439 l 3.49148,-2.66308 4.06705,3.48124 c 4.95916,4.24486 11.36848,6.21256 19.98332,6.135 7.54521,-0.0679 12.97749,-1.60552 18.26188,-5.16898 3.47753,-2.34502 3.89603,-2.41537 5.53654,-0.93073 7.34252,6.64489 24.42508,8.25405 34.62852,3.26198 7.33607,-3.58921 10.57443,-8.20399 10.56932,-15.06168 -0.002,-3.17501 -0.70582,-6.16925 -1.9154,-8.15293 -2.41068,-3.95342 -10.24583,-7.83202 -19.86974,-9.83602 C 258.11139,120.42584 255,118.67547 255,115.09676 c 0,-3.77524 2.06846,-5.31373 7.78318,-5.789 5.38349,-0.44772 9.24525,1.16135 10.70395,4.45999 0.89258,2.01845 1.69301,2.23225 8.35699,2.23225 6.3095,0 7.28253,-0.22758 6.76287,-1.58179 C 288.27314,113.54823 288,112.21389 288,111.45301 c 0,-2.26152 -6.00549,-8.41502 -10.40532,-10.66176 -5.09266,-2.600534 -15.61821,-3.46488 -22.39531,-1.839078 -3.0643,0.735114 -6.64062,2.589628 -9.17136,4.755848 l -4.14837,3.55085 -2.68982,-2.51527 c -4.44219,-4.15393 -9.28937,-6.040116 -16.7692,-6.525406 -9.46291,-0.613952 -17.20648,1.634338 -21.94318,6.371036 l -3.53778,3.53778 -3.10336,-2.6113 C 187.03939,99.796488 183.2044,98.505732 173,98.502763 c -8.77553,-0.0026 -9.91943,0.23355 -15,3.096017 -6.12494,3.45089 -12.12119,10.52466 -13.87036,16.36285 -1.86254,6.21662 -1.3831,17.88004 0.94704,23.03837 6.74439,14.93038 25.21022,21.73346 40.65666,14.97851 z m -16.91456,-9.92837 c -5.41024,-1.69575 -10.79723,-7.32584 -10.81219,-11.30014 -0.006,-1.61485 1.72579,-1.75 22.42602,-1.75 21.55154,0 22.45754,-0.0785 23.06715,-1.99925 0.49979,-1.57468 1.02037,-1.79275 2.45141,-1.02688 0.99928,0.5348 6.21826,2.11594 11.59773,3.51364 5.37948,1.39771 10.40465,3.05897 11.16705,3.69171 0.78191,0.64893 1.25494,2.4854 1.08512,4.2128 -0.77191,7.85164 -17.79587,7.50117 -20.30935,-0.41811 C 208.91626,139.1608 207.93676,139 197.4678,139 c -10.35421,0 -11.4949,0.18211 -12.46226,1.98965 -2.11251,3.94726 -10.93678,6.706 -16.18676,5.06049 z m 89.39565,-0.0945 c -1.25706,-0.50465 -3.05706,-2.27328 -4,-3.93029 -1.33079,-2.33858 -2.41371,-3.01416 -4.83943,-3.01907 -2.62003,-0.005 -3.21543,-0.45849 -3.68466,-2.80462 -1.23435,-6.17177 -8.89626,-11.01038 -21.69967,-13.70366 C 213.27371,120.24366 211.5,119.18119 211.5,115.01606 c 0,-2.66832 0.57035,-3.75855 2.5,-4.77878 5.22655,-2.76336 16,0.21126 16,4.41771 0,0.94326 1.46023,1.34501 4.88871,1.34501 4.74307,0 4.90723,0.0987 5.5104,3.31392 0.62547,3.33404 5.12039,8.42923 9.35362,10.60273 1.239,0.63615 6.639,2.24295 12,3.57066 6.79137,1.68195 10.27797,3.06908 11.49727,4.57413 2.29595,2.83403 2.21678,3.56269 -0.70455,6.48401 -1.94989,1.9499 -3.44048,2.44152 -7.25,2.39116 -2.6375,-0.0349 -5.82396,-0.47628 -7.08102,-0.98093 z M 159,120.36803 c 0,-0.34758 0.90709,-2.09967 2.01576,-3.89353 3.8444,-6.22038 12.63301,-8.22482 19.87132,-4.53211 3.6204,1.84699 7.11292,5.78609 7.11292,8.02243 C 188,120.6308 182.82855,121 173.5,121 165.525,121 159,120.71562 159,120.36803 Z m -45.08994,-1.03651 C 111.12939,108.46646 110.88145,92.859637 113.32922,82.770023 120.15926,54.616834 141.71128,33.728666 172.5,25.421838 182.41993,22.745432 202.7092,22.432763 214,24.782301 242.50058,30.713072 266.34605,47.352176 279.51794,70.5 l 2.84517,5 -6.93155,-6.561348 C 264.2357,58.340753 253.99422,52.249415 239.96476,47.844014 233.43636,45.794028 230.493,45.5 216.5,45.5 c -13.993,0 -16.93636,0.294028 -23.46476,2.344014 -9.25635,2.906595 -17.70533,7.094262 -25.58254,12.679778 C 158.91712,66.576139 146.5453,80 149.50286,80 c 0.27658,0 3.71774,-3.384428 7.64703,-7.520951 17.22489,-18.133327 37.6481,-26.281628 63.28439,-25.248736 10.09862,0.406876 13.61453,1.006672 21.56572,3.679006 5.225,1.756082 12.59036,5.02138 16.36746,7.256218 8.17963,4.839729 19.96751,15.770538 25.19979,23.367587 6.56882,9.537625 6.93862,6.68168 0.8094,-6.25085 C 277.8698,61.552965 265.37527,47.332453 251.67821,38.066899 244.27722,33.060396 229.43368,26.381797 220,23.813818 c -7.38568,-2.010486 -10.72863,-2.306026 -25.5,-2.254381 -15.53379,0.05431 -17.75868,0.292278 -25.79659,2.759121 C 136.06638,34.334909 114.79669,57.947511 109.98946,89.5 c -1.77043,11.62034 -0.23876,25.87278 3.96433,36.88869 2.19196,5.74493 2.16614,1.57758 -0.0437,-7.05717 z"
         id="path4340" />
      <path
         style="fill:#1298d9;fill-opacity:1"
         d="M 0,130.5 V 0 H 215 430 V 130.5 261 H 215 0 Z m 225,112.78832 c 7.70034,-1.80512 18.94712,-6.79061 25.67465,-11.38111 C 256.03698,228.24826 268,217.155 268,215.84149 c 0,-1.88622 -2.08327,-0.55187 -7.66391,4.90878 -40.07578,39.21415 -103.11235,24.81686 -128.4947,-29.34766 -5.9549,-12.70743 -7.9875,-21.69503 -8.57189,-37.90261 -0.57528,-15.95477 0.91634,-25.79268 5.83735,-38.5 2.49653,-6.4467 10.35498,-21.033227 8.35057,-15.5 -5.18466,14.31243 -6.25811,34.98189 -2.54478,49 2.36672,8.93454 7.40487,20.19424 12.06964,26.97424 12.84261,18.6661 36.53702,33.39674 57.43047,35.70409 5.01719,0.55407 4.05058,-1.88176 -1.05028,-2.64668 -12.91633,-1.93693 -27.97787,-8.77596 -38.97238,-17.6963 -11.56584,-9.38388 -20.13072,-22.0642 -25.55575,-37.83535 -3.09369,-8.99367 -3.26959,-10.27282 -3.30047,-24 -0.0363,-16.13155 1.7257,-24.62827 7.46483,-35.997418 5.04301,-9.990153 0.56719,-7.850117 -6.95229,3.324115 C 123.34445,115.2023 117.75471,141.1451 121.34607,164.55319 129.65502,218.71 176.86665,254.57178 225,243.28832 Z m 22.6364,-30.37057 c 40.11195,-5.57906 74.13818,-36.41166 83.47856,-75.64343 2.43801,-10.2402 2.86078,-26.5208 0.92898,-35.77432 -6.22099,-29.799235 -28.16901,-52.40933 -58.40712,-60.169025 -4.02802,-1.033667 -6.18603,-1.181762 -6.89465,-0.473147 -0.70861,0.708615 -0.12544,1.232607 1.86319,1.674102 20.65354,4.585297 37.24941,14.940315 47.80154,29.82585 5.62891,7.940521 8.83846,14.407528 11.74604,23.667443 2.03593,6.483917 2.33559,9.396897 2.26051,21.974777 -0.0758,12.70354 -0.41767,15.58984 -2.75912,23.29659 -6.30017,20.73658 -18.26114,37.62683 -36.03971,50.89215 -15.13012,11.2892 -31.9547,17.59189 -49.11462,18.39893 l -10,0.4703 7.5,-2.38621 c 10.76466,-3.42491 14.48808,-5.19795 23.62258,-11.24872 16.93112,-11.21532 29.04177,-28.40993 34.45787,-48.92304 3.98155,-15.07982 2.21624,-40.29043 -3.61017,-51.557472 -2.42073,-4.681179 -3.49292,-2.507815 -1.43488,2.90853 6.07047,15.976152 6.49831,36.520642 1.10684,53.148942 -9.99545,30.82786 -35.87924,51.84164 -69.10457,56.10262 -9.59788,1.23088 -11.43121,2.41619 -5.28767,3.41866 2.0625,0.33654 4.425,0.75473 5.25,0.92931 3.53489,0.748 15.44275,0.4677 22.6364,-0.53284 z m -62.02042,-56.39348 c 2.13621,-0.88801 5.52003,-2.92408 7.5196,-4.52459 3.59256,-2.87559 3.65656,-2.88684 5.40869,-0.95076 2.9512,3.26104 11.59601,6.89728 17.97646,7.5614 7.73067,0.80465 16.01065,-0.92727 21.70854,-4.54076 l 4.47898,-2.84049 4.21089,2.82806 c 8.17199,5.48838 21.81995,6.26165 32.14222,1.82113 15.35412,-6.60517 15.46152,-24.14327 0.18704,-30.54389 -1.78838,-0.7494 -6.51338,-2.03668 -10.5,-2.86062 -9.41767,-1.94641 -12.54609,-3.26097 -13.28253,-5.5813 -1.41692,-4.46432 2.68957,-7.8984 9.43335,-7.88871 3.30756,0.005 9.10078,3.49412 9.10078,5.48156 0,1.22021 1.47923,1.5147 7.60841,1.5147 h 7.60841 l -0.6779,-2.75 c -1.22845,-4.98342 -4.06737,-8.68203 -9.00912,-11.73728 C 274.91465,98.659393 274.09717,98.5 264.07842,98.5 c -9.75728,0 -10.94412,0.21497 -15.28958,2.76939 -2.59114,1.52317 -5.10664,3.47607 -5.59,4.33978 -0.75001,1.3402 -1.37306,1.11897 -4.25078,-1.50943 -9.64287,-8.807401 -32.40227,-7.965532 -39.82677,1.47319 l -2.06776,2.62874 -4.14335,-3.54656 C 187.58053,100.09313 181.31848,98 173,98 c -8.55979,0 -14.77133,2.16634 -20.38838,7.11066 -14.22983,12.5256 -13.36723,36.98219 1.67783,47.57013 4.0141,2.82492 7.82782,4.60822 12.21055,5.70966 3.61195,0.90773 15.15351,-0.219 19.11598,-1.86618 z m 28.59845,-10.56859 c -1.25706,-0.50465 -3.05706,-2.27328 -4,-3.93029 l -1.71443,-3.01274 -10.8788,-0.006 -10.8788,-0.006 -3.87408,3.5 c -3.3924,3.06483 -4.52647,3.49954 -9.1212,3.49626 -6.20474,-0.004 -10.82516,-2.43587 -13.75252,-7.23712 C 156.40344,132.86917 155.93548,133 180.59362,133 c 21.63596,0 22.61545,-0.0835 23.10865,-1.96949 0.47439,-1.81405 0.73299,-1.85679 3.27644,-0.54152 1.51877,0.78538 6.08237,2.17649 10.14134,3.09135 9.61543,2.16724 12.8841,3.8684 12.86464,6.69534 -0.0192,2.78563 -0.89316,4.11355 -3.66895,5.57462 -2.57026,1.35288 -8.85747,1.40763 -12.10131,0.10538 z m 43.4895,-0.55179 c -1.53784,-0.83383 -3.2142,-2.61581 -3.72525,-3.95997 C 253.2358,139.49001 252.34279,139 249.52475,139 c -2.68881,0 -3.52564,-0.41503 -3.52849,-1.75 C 245.98292,131.00237 237.82612,125.39983 224.5,122.4852 213.52198,120.08413 211,118.68579 211,115 c 0,-5.1719 7.40754,-7.52787 14.43576,-4.59129 1.85433,0.77479 3.6702,2.34979 4.03527,3.5 0.55522,1.74936 1.47023,2.09129 5.59636,2.09129 4.36772,0 4.93261,0.24416 4.93261,2.13197 0,6.43508 8.05375,12.33393 21,15.38114 10.60797,2.49684 13,3.87444 13,7.48689 0,2.25382 -0.69522,3.30815 -2.95034,4.47432 -3.7269,1.92725 -9.71967,1.89563 -13.34573,-0.0704 z M 159,120.07673 c 0,-1.61551 5.13322,-7.09426 8.06946,-8.61265 5.80494,-3.00185 13.53119,-1.10425 18.22723,4.47667 1.48682,1.76699 2.70331,3.62817 2.70331,4.13598 0,0.52191 -6.30331,0.92327 -14.5,0.92327 -8.19669,0 -14.5,-0.40136 -14.5,-0.92327 z m -43.10959,5.13787 C 113.38943,118.64337 111.8617,108.83802 111.89034,99.541066 112.07863,38.414075 180.99948,3.7394166 241.00893,34.580419 256.70965,42.649581 271.11007,56.203061 279.70433,71 l 2.61366,4.5 -6.40722,-6.338223 C 241.33748,34.960782 185.6349,36.611057 153.66899,72.78338 149.36006,77.659315 148.05085,80 149.63252,80 c 0.34789,0 3.32788,-2.941501 6.62219,-6.536668 10.2447,-11.180277 23.59378,-19.406954 38.44611,-23.693286 11.22222,-3.238697 32.37614,-3.238697 43.59836,0 C 256.8095,55.112061 273.34303,66.902417 283.84559,82.25 287.05301,86.937062 289,88.239145 289,85.697103 289,84.980509 287.16664,80.60305 284.92587,75.969416 271.74525,48.713571 245.77354,28.997582 214.5,22.506781 c -10.44877,-2.168634 -28.54088,-2.169927 -39,-0.0028 -17.79424,3.686985 -31.24198,10.989476 -44,23.893212 C 121.2779,56.736054 115.65579,66.195705 111.82617,79.5 c -3.93371,13.665868 -2.74127,38.31606 2.31011,47.75463 1.48798,2.78032 2.94418,1.08678 1.75413,-2.04003 z"
         id="path4338" />
    </g>
    <path
       style="fill:#1298d9;fill-opacity:1;stroke-width:0.134004"
       d="m 162.27915,172.51486 v -15.76112 l 0.30151,0.0705 c 3.3394,0.78125 5.52919,0.95301 10.9537,0.85922 5.61792,-0.0971 8.77177,-0.43503 11.0565,-1.18457 1.30567,-0.42834 4.25385,-1.95001 6.00687,-3.10038 1.33908,-0.87874 2.00465,-1.44737 3.71469,-3.17369 l 2.08331,-2.10314 1.3338,1.25618 c 2.21258,2.08384 4.21491,3.77185 5.47025,4.61155 3.79358,2.53754 7.55228,3.47049 15.62917,3.87933 7.37481,0.3733 12.59894,-0.40525 16.77052,-2.49932 1.3994,-0.70247 2.63995,-1.52458 4.33515,-2.87288 2.73217,-2.17306 2.72126,-2.17147 4.33265,-0.63237 2.3264,2.22203 4.57764,3.49588 7.86174,4.44854 6.3078,1.82977 17.45924,2.18448 23.13308,0.73582 0.56778,-0.14497 1.06752,-0.26358 1.11052,-0.26358 0.043,0 0.0782,6.06287 0.0782,13.47304 v 13.47305 l -2.25655,2.27245 -2.25656,2.27246 h -54.82926 -54.82926 z"
       id="path7176" />
    <path
       style="fill:#1298d9;fill-opacity:1;stroke-width:0.771316"
       d="M 0,130.35238 V 0 H 214.81147 429.62295 V 130.35238 260.70477 H 214.81147 0 Z m 216.4581,114.15688 c 16.73294,-1.76325 32.83,-9.69395 46.23011,-22.77664 3.86285,-3.77135 5.09839,-5.76417 3.57377,-5.76417 -0.33732,0 -3.37438,2.47111 -6.74902,5.49136 -14.36635,12.85767 -26.44598,18.56543 -43.93017,20.75746 -13.78179,1.72785 -27.42053,-0.5002 -40.30129,-6.5837 -18.73719,-8.84946 -32.50865,-22.49216 -42.07422,-41.68088 -7.49193,-15.02895 -9.85259,-25.53274 -9.85321,-43.84202 -4.8e-4,-14.29558 0.91025,-20.9214 4.23847,-30.83598 2.1912,-6.52748 8.02004,-18.62843 8.66322,-17.98526 0.22367,0.22369 -0.31889,3.27597 -1.20571,6.78286 -1.33605,5.28335 -1.6101,8.69746 -1.59901,19.92017 0.0153,15.51203 0.83103,20.49409 5.00714,30.58252 9.28129,22.42122 24.84534,38.12907 46.79044,47.22278 6.01068,2.49073 17.2885,5.52755 20.56417,5.53739 2.86291,0.009 1.53168,-1.84338 -1.85832,-2.58524 -15.00693,-3.28408 -25.73918,-7.81656 -35.65693,-15.05874 l -5.93396,-4.33312 27.24464,-0.20276 c 14.98455,-0.11151 39.28064,-0.11151 53.99132,0 l 26.74668,0.20276 -4.33977,3.29881 c -10.92351,8.30335 -23.57738,13.59778 -38.08261,15.93393 -10.15958,1.63625 -11.18408,1.8831 -11.18408,2.69477 0,1.49361 11.19164,2.58118 21.59685,2.09873 12.35744,-0.57297 21.22849,-2.42642 31.67699,-6.61838 39.70576,-15.93 65.17329,-53.98163 62.96316,-94.07469 -1.84925,-33.546613 -22.74353,-59.893025 -55.65803,-70.181408 -7.94922,-2.484759 -10.44343,-2.893779 -10.44343,-1.712592 0,0.853953 1.07095,1.28089 9.08924,3.623461 16.05049,4.689194 29.53145,13.931564 39.91593,27.36583 17.33897,22.431205 19.70867,57.154979 5.78313,84.741339 -12.02359,23.81859 -33.96619,42.54253 -59.10945,50.43894 -7.04995,2.21409 -20.40742,4.39084 -26.63048,4.33974 l -4.14325,-0.034 9.19578,-3.05588 c 23.97804,-7.96823 40.45471,-22.19326 50.91196,-43.95452 6.64719,-13.83264 7.61802,-18.35823 7.68794,-35.83802 0.062,-15.50843 -0.878,-21.3917 -4.92742,-30.83861 -1.98749,-4.636619 -3.38867,-3.914259 -1.88013,0.969282 4.62927,14.986208 6.0341,28.772118 4.27321,41.934368 -1.51586,11.33075 -6.97613,24.64575 -14.36352,35.02577 -5.92116,8.31982 -5.77584,8.47076 -5.77584,-5.99949 v -12.70401 l 3.00996,-1.3573 c 3.5756,-1.61237 8.14264,-6.11151 9.28517,-9.14713 1.05254,-2.7965 1.04966,-9.07025 -0.005,-11.85497 -2.03815,-5.37928 -8.27073,-8.90515 -21.57639,-12.20612 -9.47403,-2.35037 -12.31018,-4.02215 -12.31018,-7.25626 0,-3.14232 2.42525,-4.89546 7.33556,-5.30266 4.94437,-0.41004 7.93831,0.63193 10.69018,3.72045 1.14356,1.28345 3.13174,2.42703 4.74602,2.72988 2.85182,0.535 9.35403,0.0867 10.13986,-0.69916 0.24207,-0.24207 0.20034,-1.71837 -0.0927,-3.28066 -0.74517,-3.97211 -7.27974,-10.40371 -12.38555,-12.190383 -10.1662,-3.557447 -22.17599,-2.154593 -29.58926,3.456293 -2.34974,1.77846 -4.42579,2.82159 -4.9623,2.49337 -0.50733,-0.31036 -2.36052,-1.65905 -4.11819,-2.99707 -4.68671,-3.567717 -11.83021,-5.277177 -19.93851,-4.771317 -7.59723,0.473974 -13.06131,2.701327 -17.26402,7.037407 l -2.58454,2.66657 -4.54167,-3.34338 c -6.5277,-4.805431 -11.04316,-6.16975 -20.35129,-6.149017 -6.79036,0.01512 -8.27649,0.275475 -12.42172,2.176117 -5.96546,2.73524 -11.89969,8.69543 -14.71131,14.77566 -1.92348,4.15961 -2.14189,5.48641 -2.1585,13.11237 -0.0167,7.64424 0.18942,8.92818 2.08079,12.96502 2.4579,5.24598 8.86539,11.84519 13.55384,13.95939 l 3.24414,1.4629 -0.0257,15.88766 -0.0256,15.88766 -5.05131,-5.28035 c -22.39255,-23.40789 -27.85517,-58.23415 -14.14111,-90.155046 1.40896,-3.27952 2.2913,-6.229803 1.96074,-6.556185 -1.44745,-1.429179 -11.98572,14.241941 -16.30641,24.248741 -20.1013,46.55496 -0.37543,103.95508 43.23084,125.797 14.54028,7.28306 27.99295,9.64367 44.84031,7.86837 z M 115.67104,126.68863 c -0.0145,-0.74239 -0.72105,-4.12654 -1.57014,-7.52033 -2.26988,-9.0726 -2.82368,-24.518515 -1.17145,-32.672597 3.14559,-15.52415 9.70627,-27.936788 20.47037,-38.729453 11.58995,-11.620715 25.2277,-18.913299 42.67208,-22.818267 7.86231,-1.759998 28.70448,-1.750384 37.79462,0.01743 24.20448,4.707195 47.94916,19.919818 61.35073,39.30587 5.98161,8.652717 5.72016,9.189488 -1.41443,2.903801 -11.66782,-10.279551 -24.07249,-16.983232 -37.2902,-20.152229 -9.32018,-2.234549 -31.53292,-2.17302 -40.57045,0.11238 -14.49106,3.664482 -26.55145,10.452269 -37.99204,21.382543 -5.79952,5.540822 -9.69956,10.571471 -8.85239,11.418638 0.22536,0.225363 3.82265,-3.021429 7.99398,-7.215085 12.1899,-12.255152 25.10549,-19.788539 40.36515,-23.544122 7.97411,-1.962523 28.29662,-2.349253 35.86619,-0.68252 18.44113,4.060528 37.3331,16.378522 49.4879,32.267243 7.38007,9.647218 8.1636,8.491942 2.46143,-3.629272 -8.99089,-19.112127 -25.45583,-35.983569 -44.23618,-45.328322 -7.21138,-3.588253 -18.65857,-7.616531 -25.65172,-9.026872 -8.74784,-1.764217 -32.09469,-1.7728 -40.60509,-0.01493 -12.25414,2.531161 -25.2308,8.431806 -34.83027,15.837746 -6.59845,5.090662 -15.20938,14.614037 -19.46188,21.524126 -4.46014,7.247471 -8.25442,17.000618 -9.86845,25.366672 -2.15079,11.148222 -1.07578,28.28948 2.43754,38.86707 1.20947,3.64141 2.66561,4.93927 2.6147,2.33048 z"
       id="path7332" />
  </g>
</svg>
