<?xml version="1.0" encoding="UTF-8" standalone="no"?>
<!-- Created with Inkscape (http://www.inkscape.org/) -->

<svg
   sodipodi:docname="mlz-logo-auth_x.svg"
   viewBox="0 0 699 425"
   height="425"
   width="699"
   id="svg824"
   version="1.1"
   inkscape:version="1.1.1 (c3084ef, 2021-09-22)"
   xmlns:inkscape="http://www.inkscape.org/namespaces/inkscape"
   xmlns:sodipodi="http://sodipodi.sourceforge.net/DTD/sodipodi-0.dtd"
   xmlns="http://www.w3.org/2000/svg"
   xmlns:svg="http://www.w3.org/2000/svg">
  <defs
     id="defs828">
    <linearGradient
       id="linearGradient11834"
       inkscape:swatch="solid">
      <stop
         style="stop-color:#203669;stop-opacity:1;"
         offset="0"
         id="stop11832" />
    </linearGradient>
    <clipPath
       clipPathUnits="userSpaceOnUse"
       id="clipPath1078">
      <rect
         style="fill:#ffffff"
         id="rect1080"
         width="700"
         height="425"
         x="-0.5"
         y="0" />
    </clipPath>
    <clipPath
       clipPathUnits="userSpaceOnUse"
       id="clipPath1082">
      <rect
         style="fill:#ffffff"
         id="rect1084"
         width="700"
         height="425"
         x="-0.5"
         y="0" />
    </clipPath>
  </defs>
  <sodipodi:namedview
     id="namedview826"
     pagecolor="#505050"
     bordercolor="#eeeeee"
     borderopacity="1"
     inkscape:pageshadow="0"
     inkscape:pageopacity="0"
     inkscape:pagecheckerboard="0"
     showgrid="false"
     inkscape:zoom="0.58762232"
     inkscape:cx="126.78211"
     inkscape:cy="203.36191"
     inkscape:window-width="1280"
     inkscape:window-height="755"
     inkscape:window-x="0"
     inkscape:window-y="23"
     inkscape:window-maximized="0"
     inkscape:current-layer="g830"
     fit-margin-top="0"
     fit-margin-left="0"
     fit-margin-right="0"
     fit-margin-bottom="0" />
  <g
     inkscape:groupmode="layer"
     inkscape:label="Image"
     id="g830"
     style="display:inline">
    <rect
       style="fill:#ffffff"
       id="rect868"
       width="690"
       height="690"
       x="4.5"
       y="-132.5"
       clip-path="url(#clipPath1082)" />
    <path
       style="fill:#203669;fill-opacity:1;stroke:none;stroke-opacity:1"
       d="m 1e-6,212.5 v -350 H 349.5 699 v 350 350 H 349.5 1e-6 Z M 611,336 c 0,-1.3295 -29.66667,-1.5 -261,-1.5 -231.33333,0 -261.000003,0.1705 -261.000003,1.5 0,1.3295 29.666673,1.5 261.000003,1.5 231.33333,0 261,-0.1705 261,-1.5 z M 129.41821,320.89301 c 3.51299,-1.34806 1.52319,-2.88886 -3.29889,-2.5545 -4.17817,0.28971 -5.11527,0.005 -6.50062,-1.97251 -2.87256,-4.10114 -2.14432,-4.75708 5.6313,-5.07219 L 132.5,311 l -0.28436,-3.5 c -0.39683,-4.88429 -3.26784,-7.45455 -8.32682,-7.45455 -3.28769,0 -4.59713,0.57669 -6.6021,2.90761 -2.20694,2.56572 -2.45025,3.60938 -2.0693,8.876 0.33953,4.69391 0.91992,6.36373 2.71793,7.81967 2.25473,1.82577 8.26917,2.47749 11.48286,1.24428 z M 118,307.72251 c 0,-0.42763 0.70052,-1.77763 1.5567,-3 2.71946,-3.88257 9.4433,-2.47455 9.4433,1.97749 0,1.51515 -0.87037,1.8 -5.5,1.8 -3.025,0 -5.5,-0.34987 -5.5,-0.77749 z M 246.875,320.875 250,320.25 v -7.65249 c 0,-8.75544 -1.32145,-11.5118 -5.96412,-12.44033 -4.08242,-0.81649 -9.03588,0.26875 -9.03588,1.97964 0,1.04992 0.93933,1.23661 3.86674,0.7685 4.42965,-0.70833 8.13326,0.83075 8.13326,3.37986 0,1.41 -0.96879,1.71482 -5.45,1.71482 -6.25346,0 -7.39993,0.80036 -8.19888,5.72373 -1.03851,6.39957 3.98927,9.05819 13.52388,7.15127 z m -9.48547,-3.80227 c -0.30123,-0.785 -0.39961,-2.4725 -0.21861,-3.75 0.28412,-2.00542 0.97798,-2.36437 5.07908,-2.62752 l 4.75,-0.30479 v 4.05479 4.05479 h -4.53138 c -3.00279,0 -4.71615,-0.48147 -5.07909,-1.42727 z m 41.02868,3.82028 C 279.2882,320.55917 280,319.72522 280,319.0398 c 0,-0.8866 -1.39052,-1.1126 -4.81876,-0.78319 C 269.91248,318.76287 267,317.04411 267,313.42857 267,311.70748 267.75309,311.5 274,311.5 h 7 v -3.84501 c 0,-6.03703 -5.10087,-9.26689 -11.36837,-7.19843 -4.05904,1.3396 -5.63163,4.44923 -5.63163,11.13595 0,6.53696 3.01851,9.90749 8.87276,9.90749 2.18001,0 4.67547,-0.27314 5.54545,-0.60699 z M 267,307.72251 c 0,-0.42763 0.70052,-1.77763 1.5567,-3 2.71946,-3.88257 9.4433,-2.47455 9.4433,1.97749 0,1.51515 -0.87037,1.8 -5.5,1.8 -3.025,0 -5.5,-0.34987 -5.5,-0.77749 z m 79.6808,13.1653 c 3.92978,-1.05395 1.56459,-2.92174 -3.21813,-2.54135 -5.03485,0.40043 -7.01477,-0.7231 -7.71326,-4.377 -0.4674,-2.44506 -0.39932,-2.46946 6.88926,-2.46946 6.73345,0 7.36133,-0.17333 7.36133,-2.03212 0,-4.27524 -2.68347,-8.67394 -5.64161,-9.24763 -3.9532,-0.76666 -7.94824,0.16905 -9.89202,2.31691 -3.77938,4.17617 -2.60934,15.62026 1.81543,17.75654 2.49683,1.20546 7.13209,1.47028 10.399,0.59411 z m -10.50035,-14.61769 c 0.39723,-2.77192 5.10736,-4.70582 7.62232,-3.12959 0.93348,0.58505 1.84103,2.03027 2.01678,3.2116 0.2916,1.95998 -0.13,2.14787 -4.81955,2.14787 -4.74457,0 -5.11457,-0.17119 -4.81955,-2.22988 z m 41.95877,13.31823 c 2.04689,-1.65747 2.36078,-2.78394 2.36078,-8.47222 0,-8.62816 -2.08606,-11.03451 -9.46922,-10.92313 L 366,300.2689 v -4.38445 c 0,-3.23062 -0.39475,-4.38445 -1.5,-4.38445 -1.26207,0 -1.5,2.2258 -1.5,14.03222 0,13.61731 0.0665,14.05897 2.25,14.93662 3.99355,1.60521 10.35628,1.17056 12.88922,-0.88049 z m -11.47255,-1.75502 C 366.3,317.46667 366,314.30702 366,310.81189 c 0,-5.75649 0.22842,-6.45884 2.42626,-7.46024 3.525,-1.60611 7.45784,-0.28175 8.68994,2.92628 1.18269,3.07939 0.5642,8.69732 -1.19025,10.8113 -1.18305,1.42548 -8.02784,1.97555 -9.25928,0.7441 z m 62.06801,1.98073 c 0.24389,-0.743 -1.03445,-1.30324 -3.4227,-1.5 L 421.5,318 l -0.29381,-7.25 -0.29381,-7.25 h 3.54381 c 2.48339,0 3.54381,-0.44885 3.54381,-1.5 0,-1.04762 -1.05556,-1.5 -3.5,-1.5 -3.09677,0 -3.5,-0.29762 -3.5,-2.58333 0,-3.13272 -2.34847,-2.78984 -2.81955,0.41166 -0.20138,1.36857 -1.03345,2.17167 -2.25,2.17167 -2.54128,0 -2.4889,2.0412 0.0695,2.71025 1.76996,0.46286 2,1.36402 2,7.83495 0,8.70019 1.34077,10.7236 6.79708,10.25775 1.95158,-0.16662 3.7235,-0.83662 3.9376,-1.48889 z m 74.23636,0.725 c 2.40353,-1.52004 0.31383,-2.43666 -4.92158,-2.15879 -4.0416,0.21452 -5.09251,-0.0922 -5.97667,-1.74425 C 489.705,312.21175 490.5264,311.5 498,311.5 h 7 v -3.27749 c 0,-6.53029 -5.02676,-9.85887 -11.60836,-7.68675 -4.33569,1.43091 -5.39164,3.47635 -5.39164,10.44395 0,7.35207 2.78267,10.52787 9.20455,10.50498 2.3625,-0.008 4.95742,-0.43396 5.76649,-0.94563 z M 491,307.07143 c 0,-2.18599 2.86998,-4.57143 5.5,-4.57143 2.63002,0 5.5,2.38544 5.5,4.57143 0,1.06493 -1.4,1.42857 -5.5,1.42857 -4.1,0 -5.5,-0.36364 -5.5,-1.42857 z m 52.73468,12.74263 c 0.24389,-0.743 -1.03445,-1.30324 -3.4227,-1.5 L 536.5,318 l -0.29254,-7.1871 -0.29254,-7.1871 3.71524,-0.3129 c 5.30632,-0.4469 5.6875,-2.8129 0.45317,-2.8129 -3.72401,0 -4.08333,-0.22732 -4.08333,-2.58333 0,-3.13272 -2.34847,-2.78984 -2.81955,0.41166 -0.17575,1.19442 -0.96325,2.17167 -1.75,2.17167 -0.78675,0 -1.43045,0.675 -1.43045,1.5 0,0.825 0.675,1.5 1.5,1.5 1.18579,0 1.5,1.41972 1.5,6.77749 0,8.71709 1.68354,11.46022 6.76772,11.02721 1.96772,-0.16758 3.75286,-0.83837 3.96696,-1.49064 z M 574.875,320.875 578,320.25 v -9.875 c 0,-8.11111 -0.26793,-9.875 -1.5,-9.875 -1.22289,0 -1.5,1.67275 -1.5,9.05479 v 9.05479 l -4.70976,-0.30479 c -5.49175,-0.3554 -6.0279,-1.35614 -6.19056,-11.55479 -0.0548,-3.4375 -0.54968,-6.25 -1.09968,-6.25 -0.59212,0 -1,3.64777 -1,8.9433 0,8.10813 0.20755,9.08866 2.22251,10.5 2.37002,1.66002 5.59885,1.94243 10.65249,0.9317 z M 90.999997,314 v -6.5 h 7.5 H 106 v 6.5 c 0,5.11111 0.32051,6.5 1.5,6.5 1.2619,0 1.5,-2.22222 1.5,-14 0,-11.56365 -0.25235,-14 -1.4501,-14 -1.06389,0 -1.52996,1.53138 -1.75,5.75 L 105.5,304 l -7.250003,0.29381 -7.25,0.29381 v -6.04381 c 0,-4.70561 -0.33213,-6.04381 -1.5,-6.04381 -1.26191,0 -1.5,2.22222 -1.5,14 0,11.77778 0.23809,14 1.5,14 1.17949,0 1.5,-1.38889 1.5,-6.5 z M 140,310.5 c 0,-8.22222 -0.26667,-10 -1.5,-10 -1.23333,0 -1.5,1.77778 -1.5,10 0,8.22222 0.26667,10 1.5,10 1.23333,0 1.5,-1.77778 1.5,-10 z m 9.21107,1.25 0.28893,-8.75 3.31532,-0.31823 c 5.25004,-0.50394 6.18468,0.99831 6.18468,9.94067 0,6.33561 0.29361,7.87756 1.5,7.87756 1.21298,0 1.5,-1.58987 1.5,-8.30887 0,-10.85059 -0.90777,-12.15126 -8.3589,-11.9768 -3.06971,0.0719 -6.04475,0.4171 -6.6112,0.76719 -0.58886,0.36394 -1.0299,4.67945 -1.0299,10.0775 0,7.61351 0.28282,9.44098 1.46107,9.44098 1.14809,0 1.52296,-1.87435 1.75,-8.75 z M 184,319.5 c 0,-0.55556 -2.66667,-1 -6,-1 -3.3,0 -6,-0.21997 -6,-0.48883 0,-0.26886 1.95551,-3.08136 4.34558,-6.25 2.39007,-3.16864 5.14182,-6.99867 6.11501,-8.51117 l 1.76943,-2.75 h -8.61501 C 168.62389,300.5 167,300.78274 167,302 c 0,1.15152 1.27778,1.5 5.5,1.5 3.025,0 5.5,0.30644 5.5,0.68098 0,0.37454 -2.475,3.91231 -5.5,7.86172 -3.025,3.9494 -5.5,7.46796 -5.5,7.81902 0,0.35105 3.825,0.63828 8.5,0.63828 5,0 8.5,-0.41176 8.5,-1 z m 19,-9.5 c 0,-5.775 0.38833,-10.5 0.86296,-10.5 0.47463,0 2.56949,4.06954 4.65525,9.04343 2.62803,6.26703 4.25056,8.95334 5.28501,8.75 0.82099,-0.16139 3.33863,-4.54364 5.59475,-9.73834 l 4.10203,-9.4449 0.28275,11.1949 c 0.22845,9.04483 0.56455,11.19491 1.75,11.19491 1.2198,0 1.46725,-2.36111 1.46725,-14 0,-13.4583 -0.0795,-14 -2.05503,-14 -2.04918,0 -2.66807,1.08258 -9.10731,15.93065 l -1.92146,4.43065 -4.4581,-9.89881 C 207.00615,297.51815 205,292.93686 205,292.78185 205,292.62683 203.875,292.5 202.5,292.5 H 200 v 14 c 0,11.77778 0.2381,14 1.5,14 1.2381,0 1.5,-1.83333 1.5,-10.5 z m 56,0.5 c 0,-8.22222 -0.26667,-10 -1.5,-10 -1.23333,0 -1.5,1.77778 -1.5,10 0,8.22222 0.26667,10 1.5,10 1.23333,0 1.5,-1.77778 1.5,-10 z m 30.20956,1.75 0.29044,-8.25 3.7727,-0.93191 c 3.6756,-0.90793 4.72329,-3.15122 1.39397,-2.98476 -0.91667,0.0458 -3.24167,0.15834 -5.16667,0.25 L 286,300.5 v 10 c 0,8.09907 0.27745,10 1.45956,10 1.13799,0 1.52354,-1.81759 1.75,-8.25 z M 330,319.54381 c 0,-0.52591 -3.2625,-1.08841 -7.25,-1.25 L 315.5,318 315.22012,305.25 c -0.22883,-10.42459 -0.548,-12.75 -1.75,-12.75 -1.22349,0 -1.47012,2.34867 -1.47012,14 v 14 h 9 c 5.05843,0 9,-0.41877 9,-0.95619 z M 358,310.5 c 0,-8.22222 -0.26667,-10 -1.5,-10 -1.23333,0 -1.5,1.77778 -1.5,10 0,8.22222 0.26667,10 1.5,10 1.23333,0 1.5,-1.77778 1.5,-10 z m 31,1.51905 c 0,-8.13846 0.0978,-8.50548 2.42091,-9.08855 6.11168,-1.53394 8.54161,1.67769 8.56435,11.3195 0.0115,4.88234 0.34298,6.25 1.51474,6.25 1.17935,0 1.48793,-1.33603 1.44356,-6.25 -0.12097,-13.39523 -3.459,-16.27103 -15.19356,-13.08967 -1.50945,0.40923 -1.75,1.77102 -1.75,9.90706 0,7.71788 0.27268,9.43261 1.5,9.43261 1.21542,0 1.5,-1.60899 1.5,-8.48095 z M 411,310.5 c 0,-8.22222 -0.26667,-10 -1.5,-10 -1.23333,0 -1.5,1.77778 -1.5,10 0,8.22222 0.26667,10 1.5,10 1.23333,0 1.5,-1.77778 1.5,-10 z m 37,9 c 0,-0.55 -2.475,-1 -5.5,-1 -3.025,0 -5.5,-0.41547 -5.5,-0.92327 0,-0.50781 1.04652,-2.19531 2.32561,-3.75 C 442.2727,310.2446 448,301.82181 448,301.06982 c 0,-0.3134 -3.6,-0.56982 -8,-0.56982 -6.32208,0 -8,0.30414 -8,1.4501 0,1.05918 1.5149,1.53094 5.61961,1.75 l 5.61961,0.2999 -5.41012,7 c -2.97557,3.85 -5.75595,7.5625 -6.17863,8.25 -0.59174,0.9625 1.2001,1.25 7.79051,1.25 5.03935,0 8.55902,-0.41122 8.55902,-1 z m 36,0 c 0,-0.58824 -3.5,-1 -8.5,-1 -4.675,0 -8.5,-0.17771 -8.5,-0.3949 0,-0.2172 3.825,-5.49198 8.5,-11.72173 4.675,-6.22975 8.5,-11.90205 8.5,-12.6051 0,-0.95653 -2.6428,-1.27827 -10.5,-1.27827 -8.66667,0 -10.5,0.2619 -10.5,1.5 0,1.20833 1.55556,1.5 8,1.5 4.4,0 8,0.31062 8,0.69027 0,0.37966 -3.825,5.7322 -8.5,11.89454 -4.675,6.16234 -8.5,11.47672 -8.5,11.80973 0,0.333 4.95,0.60546 11,0.60546 6.66667,0 11,-0.39394 11,-1 z m 29.21107,-7.75 0.28893,-8.75 3.31532,-0.31823 c 5.25004,-0.50394 6.18468,0.99831 6.18468,9.94067 0,6.33561 0.29361,7.87756 1.5,7.87756 1.21336,0 1.49707,-1.57653 1.48469,-8.25 -0.008,-4.5375 -0.35508,-8.78435 -0.77035,-9.43744 -1.35928,-2.13771 -5.99041,-3.24644 -10.41461,-2.49332 l -4.29973,0.73192 -0.28621,9.72442 c -0.23831,8.09684 -0.0356,9.72442 1.21107,9.72442 1.19361,0 1.55587,-1.7746 1.78621,-8.75 z M 551,312.53518 c 0,-8.52756 0.90404,-10.03518 6.01759,-10.03518 1.28435,0 1.97423,-0.50296 1.71453,-1.25 -0.23899,-0.6875 -1.51399,-1.13685 -2.83333,-0.99856 -1.31933,0.13829 -3.63629,0.28088 -5.14879,0.31688 l -2.75,0.0654 v 9.93311 c 0,8.16277 0.26734,9.93312 1.5,9.93312 1.20778,0 1.5,-1.55165 1.5,-7.96482 z M 587.21107,311.75 587.5,303 l 3.08517,-0.30107 c 4.37387,-0.42682 5.64398,1.69123 6.19885,10.3373 0.26345,4.10507 0.86982,7.46377 1.34749,7.46377 0.47767,0 0.86849,-3.77686 0.86849,-8.39301 0,-8.91599 0.38709,-9.60699 5.38179,-9.60699 3.75534,0 4.61821,1.90577 4.61821,10.2 0,6.26667 0.29487,7.8 1.5,7.8 1.21298,0 1.5,-1.58987 1.5,-8.30887 0,-11.91303 -0.0949,-11.99368 -14,-11.8975 -2.475,0.0171 -6.01394,0.0421 -7.86431,0.0556 -6.03334,0.0439 -6.13569,0.22108 -6.13569,10.61937 0,7.69279 0.28184,9.53138 1.46107,9.53138 1.14809,0 1.52296,-1.87435 1.75,-8.75 z M 307,310 c 0,-1.11111 -1.16667,-1.5 -4.5,-1.5 -3.33333,0 -4.5,0.38889 -4.5,1.5 0,1.11111 1.16667,1.5 4.5,1.5 3.33333,0 4.5,-0.38889 4.5,-1.5 z M 140.5,294.4863 c 0,-2.1435 -2.90567,-1.8339 -3.32712,0.35451 -0.25736,1.3364 0.14991,1.74367 1.48631,1.48631 1.01244,-0.19498 1.84081,-1.02335 1.84081,-1.84082 z m 118.5,0.57272 c 0,-0.79254 -0.48921,-1.74333 -1.08713,-2.11287 -1.41202,-0.87268 -3.3394,1.0547 -2.46672,2.46672 0.98021,1.58602 3.55385,1.32977 3.55385,-0.35385 z m 99,0 c 0,-1.95514 -1.93837,-3.02065 -3.2,-1.75902 -0.56415,0.56415 -0.72339,1.51494 -0.35385,2.11287 0.98021,1.58602 3.55385,1.32977 3.55385,-0.35385 z m 53.5,-0.57272 c 0,-2.1435 -2.90567,-1.8339 -3.32712,0.35451 -0.25736,1.3364 0.14991,1.74367 1.48631,1.48631 1.01244,-0.19498 1.84081,-1.02335 1.84081,-1.84082 z M 611,277 c 0,-1.3295 -29.66667,-1.5 -261,-1.5 -231.33333,0 -261.000003,0.1705 -261.000003,1.5 0,1.3295 29.666673,1.5 261.000003,1.5 231.33333,0 261,-0.1705 261,-1.5 z M 107.31574,260.3503 c 1.20134,-0.63234 2.51487,-1.64484 2.91895,-2.25 0.40408,-0.60517 0.74158,-20.3378 0.75,-43.8503 0.008,-23.5125 0.36688,-42.75 0.79659,-42.75 0.4297,0 16.49832,19.16102 35.70805,42.58005 19.20973,23.41903 36.29565,43.55653 37.96872,44.75 4.12296,2.94108 16.62559,3.13069 20.77645,0.3151 1.50398,-1.02017 18.37898,-21.17052 37.5,-44.77855 L 278.5,171.4429 279,214.43676 C 279.58503,264.74241 278.66609,261 290.43357,261 303.11849,261 302,266.96058 302,199.36079 v -57.82924 l -2.80939,-3.14425 c -2.29067,-2.5637 -3.7761,-3.23714 -8.04505,-3.64734 -9.89143,-0.95044 -8.92974,-1.88969 -53.61462,52.36316 -22.37693,27.16828 -40.98809,49.37302 -41.35813,49.34387 -0.37005,-0.0292 -19.12281,-21.93448 -41.67281,-48.6785 -22.55,-26.74402 -42.20398,-49.50801 -43.67551,-50.58663 -3.64513,-2.67186 -11.391873,-3.30729 -16.139023,-1.3238 -6.79037,2.8372 -6.68547,1.83986 -6.68547,63.56277 0,39.15473 0.3295,55.70824 1.14449,57.49695 0.62947,1.38153 2.31697,2.94218 3.75,3.4681 3.67542,1.34888 11.829213,1.32876 14.421253,-0.0356 z m 351.27927,-0.95673 c 2.77352,-3.06681 2.51736,-11.2252 -0.44554,-14.18982 -2.19782,-2.19909 -2.30973,-2.20487 -52.92597,-2.73305 -53.37081,-0.55693 -53.88604,-0.60177 -60.58664,-5.27231 -5.55523,-3.87218 -5.63549,-4.6307 -5.65217,-53.41627 -0.008,-24.63017 -0.35508,-45.31647 -0.77035,-45.96956 -2.30967,-3.63238 -15.4242,-4.5822 -19.35356,-1.40168 l -2.36078,1.91087 -0.29422,44.33913 c -0.19634,29.58898 0.0806,46.56898 0.83242,51.04211 1.89979,11.30286 8.08017,18.37434 20.02596,22.91339 10.71356,4.07083 19.82282,4.6847 71.03085,4.78676 48.20445,0.0961 48.61033,0.0799 50.5,-2.00957 z m 150.79275,0.23046 c 3.64477,-4.02743 2.88747,-13.76207 -1.22932,-15.80217 -0.91214,-0.45203 -24.8232,-1.04686 -53.13568,-1.32186 l -51.47724,-0.5 52.47724,-44.34743 c 32.73066,-27.66 53.16772,-45.61831 54.31222,-47.72484 2.37013,-4.36239 1.49538,-8.55124 -2.48522,-11.9007 L 604.84655,135.5 H 542.32327 479.8 l -3.52654,3.52654 c -3.11912,3.11912 -3.45773,3.95048 -2.93102,7.19625 0.32753,2.01834 1.74429,4.8189 3.14836,6.22346 l 2.55284,2.55375 46.57324,0.5 46.57324,0.5 -51.02913,43.38373 c -31.88779,27.11023 -51.46422,44.43411 -52.18903,46.18395 -2.3313,5.62827 0.78924,11.19709 8.03518,14.33934 2.99547,1.299 12.54884,1.52027 67.08787,1.55384 60.9507,0.0375 63.66561,-0.0389 65.29275,-1.83683 z M 115,115.06849 c 75.26554,-8.36457 140.70648,-11.71173 230,-11.764 83.95502,-0.0491 149.07878,3.30085 237.89828,12.23756 16.16905,1.62687 30.11905,2.91927 31,2.872 3.00218,-0.16111 -4.37621,-1.94058 -26.39828,-6.36658 -53.96402,-10.84569 -114.64559,-17.765709 -181,-20.640919 -29.89985,-1.2956 -113.2532,-0.66141 -137.5,1.04616 -68.97945,4.85784 -113.29637,10.635019 -166.5,21.705049 -15.833273,3.29442 -23.192943,5.40554 -14.000003,4.0159 2.2,-0.33256 14.125003,-1.72988 26.500003,-3.10517 z"
       id="path926"
       clip-path="url(#clipPath1078)" />
  </g>
</svg>
