<?xml version="1.0" encoding="UTF-8" standalone="no"?>
<!-- Created with Inkscape (http://www.inkscape.org/) -->

<svg
   xmlns:dc="http://purl.org/dc/elements/1.1/"
   xmlns:cc="http://creativecommons.org/ns#"
   xmlns:rdf="http://www.w3.org/1999/02/22-rdf-syntax-ns#"
   xmlns:svg="http://www.w3.org/2000/svg"
   xmlns="http://www.w3.org/2000/svg"
   xmlns:sodipodi="http://sodipodi.sourceforge.net/DTD/sodipodi-0.dtd"
   xmlns:inkscape="http://www.inkscape.org/namespaces/inkscape"
   width="462.89316"
   height="213.32399"
   id="svg3185"
   version="1.1"
   inkscape:version="0.48.5 r10040"
   sodipodi:docname="nicos-logo.svg"
   inkscape:export-filename="/home/jkrueger/sources/nicos-core/resources/nicos-logo-high.png"
   inkscape:export-xdpi="299.88486"
   inkscape:export-ydpi="299.88486">
  <defs
     id="defs3187" />
  <sodipodi:namedview
     id="base"
     pagecolor="#ffffff"
     bordercolor="#666666"
     borderopacity="1.0"
     inkscape:pageopacity="0.0"
     inkscape:pageshadow="2"
     inkscape:zoom="4"
     inkscape:cx="451.74408"
     inkscape:cy="96.331344"
     inkscape:document-units="px"
     inkscape:current-layer="layer1"
     showgrid="false"
     fit-margin-top="9"
     fit-margin-left="10"
     fit-margin-right="9"
     fit-margin-bottom="7.5"
     inkscape:window-width="1280"
     inkscape:window-height="1004"
     inkscape:window-x="1278"
     inkscape:window-y="-3"
     inkscape:window-maximized="1"
     units="mm" />
  <metadata
     id="metadata3190">
    <rdf:RDF>
      <cc:Work
         rdf:about="">
        <dc:format>image/svg+xml</dc:format>
        <dc:type
           rdf:resource="http://purl.org/dc/dcmitype/StillImage" />
        <dc:title></dc:title>
      </cc:Work>
    </rdf:RDF>
  </metadata>
  <g
     inkscape:label="Ebene 1"
     inkscape:groupmode="layer"
     id="layer1"
     transform="translate(-90.502568,-287.66799)">
    <path
       style="fill:#0065bd;fill-opacity:1"
       inkscape:connector-curvature="0"
       d="m 219.81564,337.67075 h 8.613 v 109.942 h -8.613 v -109.942 z"
       id="path109" />
    <path
       style="fill:#66a3d7;fill-opacity:1"
       inkscape:connector-curvature="0"
       d="m 328.44864,360.47175 -6.797,6.31 c -3.75,-5.907 -8.253,-10.386 -13.506,-13.435 -5.254,-3.048 -11.025,-4.572 -17.314,-4.572 -6.876,0 -13.242,1.998 -19.102,5.99 -5.859,3.994 -10.4,9.358 -13.623,16.093 -3.223,6.735 -4.834,14.309 -4.834,22.721 0,12.714 3.604,23.323 10.811,31.83 7.207,8.507 16.298,12.761 27.275,12.761 12.07,0 22.168,-5.718 30.293,-17.156 l 6.797,6.238 c -4.298,6.618 -9.659,11.732 -16.084,15.349 -6.426,3.615 -13.604,5.423 -21.533,5.423 -15.079,0 -26.974,-6.072 -35.684,-18.219 -7.305,-10.255 -10.957,-22.638 -10.957,-37.147 0,-15.265 4.424,-28.108 13.271,-38.529 8.848,-10.421 19.931,-15.632 33.252,-15.632 8.047,0 15.312,1.926 21.797,5.778 6.484,3.85 11.798,9.249 15.938,16.197 z"
       id="path111" />
    <path
       style="fill:#99c1e5;fill-opacity:1"
       inkscape:connector-curvature="0"
       d="m 388.60364,338.49475 c 13.779,0 25.312,5.27 34.595,15.809 9.282,10.54 13.925,23.513 13.925,38.919 0,15.267 -4.632,28.216 -13.895,38.85 -9.263,10.634 -20.557,15.95 -33.883,15.95 -13.491,0 -24.88,-5.292 -34.163,-15.88 -9.282,-10.586 -13.924,-23.394 -13.924,-38.423 0,-10.019 2.114,-19.306 6.344,-27.86 4.229,-8.554 9.993,-15.253 17.297,-20.098 7.303,-4.844 15.204,-7.267 23.704,-7.267 z m 0.402,10.138 c -6.731,0 -13.112,2.01 -19.142,6.031 -6.03,4.021 -10.738,9.436 -14.124,16.247 -3.387,6.811 -5.08,14.402 -5.08,22.773 0,12.394 3.748,22.858 11.243,31.396 7.495,8.537 16.53,12.805 27.103,12.805 7.062,0 13.598,-1.962 19.606,-5.889 6.009,-3.925 10.695,-9.293 14.062,-16.104 3.366,-6.812 5.049,-14.38 5.049,-22.705 0,-8.276 -1.683,-15.762 -5.049,-22.455 -3.366,-6.692 -8.104,-12.047 -14.217,-16.069 -6.112,-4.02 -12.595,-6.03 -19.451,-6.03 z"
       id="path113" />
    <polyline
       transform="translate(-545.61143,606.53475)"
       style="fill:#003161;fill-opacity:1"
       points="681.259,-158.922 681.259,-256.557 743.662,-158.922 745.767,-158.922 745.767,-276.568 1043.317,-276.568 1028.953,-257.696 1041.886,-257.696 1064.59,-286.977 736.085,-286.977 736.085,-185.479 673.758,-286.977 671.717,-286.977 671.547,-158.922   "
       id="polyline115" />
    <g
       transform="translate(-547.21136,606.53475)"
       id="g177"
       style="fill:#003161;fill-opacity:1">
      <path
         style="fill:#003161;fill-opacity:1"
         inkscape:connector-curvature="0"
         d="m 976.768,-158.922 10.645,-10.51 c 9.713,0 34.891,0.262 39.359,-1.592 3.121,-1.295 5.619,-4.203 7.167,-6.948 1.547,-2.745 2.322,-5.656 2.322,-8.734 0,-3.503 -1.139,-6.935 -3.415,-10.297 -3.141,-4.64 -8.877,-10.226 -17.207,-16.759 -8.376,-6.579 -13.589,-11.337 -15.638,-14.272 -3.551,-4.923 -5.326,-10.25 -5.326,-15.978 0,-4.545 1.048,-8.687 3.142,-12.427 2.093,-3.739 5.041,-6.686 8.842,-8.841 3.802,-2.153 7.933,-3.231 12.395,-3.231 4.734,0 24.217,-0.746 31.24,0.02 l -8.324,10.675 c -6.989,0.065 -19.499,0.005 -23.121,0.099 -4.051,0.105 -7.363,1.278 -9.935,3.834 -2.573,2.557 -3.858,5.706 -3.858,9.444 0,2.273 0.454,4.474 1.365,6.604 0.91,2.131 2.571,4.451 4.985,6.96 1.319,1.326 5.644,4.805 12.974,10.438 8.695,6.675 14.657,12.616 17.891,17.823 3.232,5.209 4.848,10.439 4.848,15.693 0,7.575 -2.766,14.156 -8.296,19.742 -5.532,5.586 -12.257,8.379 -20.179,8.379 -6.102,0.001 -35.751,-0.122 -41.876,-0.122 z"
         id="path179" />
    </g>
    <text
       xml:space="preserve"
       style="font-size:17.3920784px;font-style:normal;font-weight:normal;line-height:125%;letter-spacing:0px;word-spacing:0px;fill:#000000;fill-opacity:1;stroke:none;font-family:Sans"
       x="128.2514"
       y="453.97266"
       id="text3815"
       sodipodi:linespacing="125%"
       transform="scale(0.96622599,1.0349546)"><tspan
         sodipodi:role="line"
         id="tspan3817"
         x="128.2514"
         y="453.97266"
         style="font-size:21.25696945px">Networked Instrument COntrol System</tspan></text>
    <flowRoot
       xml:space="preserve"
       id="flowRoot3819"
       style="font-size:18px;font-style:normal;font-weight:normal;line-height:125%;letter-spacing:0px;word-spacing:0px;fill:#000000;fill-opacity:1;stroke:none;font-family:Sans"
       transform="translate(46.33564,299.55775)"><flowRegion
         id="flowRegion3821"><rect
           id="rect3823"
           width="32.324883"
           height="89.90358"
           x="51.51778"
           y="98.562424" /></flowRegion><flowPara
         id="flowPara3825" /></flowRoot>  </g>
</svg>
