<?xml version="1.0" encoding="UTF-8" standalone="no"?>
<svg
   version="1.1"
   id="svg2"
   xml:space="preserve"
   width="333"
   height="187"
   viewBox="0 0 333 187.00001"
   sodipodi:docname="psi-logo-auth.svg"
   inkscape:version="1.1.1 (c3084ef, 2021-09-22)"
   xmlns:inkscape="http://www.inkscape.org/namespaces/inkscape"
   xmlns:sodipodi="http://sodipodi.sourceforge.net/DTD/sodipodi-0.dtd"
   xmlns="http://www.w3.org/2000/svg"
   xmlns:svg="http://www.w3.org/2000/svg"
   xmlns:rdf="http://www.w3.org/1999/02/22-rdf-syntax-ns#"
   xmlns:cc="http://creativecommons.org/ns#"
   xmlns:dc="http://purl.org/dc/elements/1.1/"><metadata
     id="metadata8"><rdf:RDF><cc:Work
         rdf:about=""><dc:format>image/svg+xml</dc:format><dc:type
           rdf:resource="http://purl.org/dc/dcmitype/StillImage" /></cc:Work></rdf:RDF></metadata><defs
     id="defs6" /><sodipodi:namedview
     pagecolor="#ffffff"
     bordercolor="#666666"
     borderopacity="1"
     objecttolerance="10"
     gridtolerance="10"
     guidetolerance="10"
     inkscape:pageopacity="0"
     inkscape:pageshadow="2"
     inkscape:window-width="1280"
     inkscape:window-height="755"
     id="namedview4"
     inkscape:pagecheckerboard="true"
     showgrid="false"
     inkscape:zoom="1.9765812"
     inkscape:cx="9.8655193"
     inkscape:cy="126.22805"
     inkscape:window-x="0"
     inkscape:window-y="23"
     inkscape:window-maximized="0"
     inkscape:current-layer="layer1"
     fit-margin-left="0"
     fit-margin-right="0"
     fit-margin-top="17"
     fit-margin-bottom="17" /><g
     inkscape:groupmode="layer"
     id="layer1"
     inkscape:label="bg"
     transform="translate(0,16.064175)"><rect
       style="fill:#ffffff;stroke-width:1.10365"
       id="rect222"
       width="333"
       height="187"
       x="0.056381226"
       y="-15.943615" /></g><g
     id="g10"
     inkscape:groupmode="layer"
     inkscape:label="ink_ext_XXXXXX"
     transform="matrix(1.3333333,0,0,-1.3333333,0,150.79123)"
     style="display:inline">
     <g
   id="g12"
   transform="scale(0.1)" /><path
   d="M 549.996,448.34 H 120 C 53.7266,448.34 0,402.273 0,345.449 V 238.281 C 0,181.465 53.7266,135.398 120,135.398 h 429.996"
   style="fill:#bdbcbc;fill-opacity:1;fill-rule:nonzero;stroke:none"
   id="path14"
   transform="scale(0.1)" /><path
   d="m 1952.62,448.34 h 424.04 c 66.28,0 120,-46.067 120,-102.891 V 238.281 c 0,-56.816 -53.72,-102.883 -120,-102.883 h -424.67"
   style="fill:#bdbcbc;fill-opacity:1;fill-rule:nonzero;stroke:none"
   id="path16"
   transform="scale(0.1)" /><path
   d="m 1105.21,136.367 16.46,93.125 -366.881,0.957 1.664,-94.914 348.757,0.832"
   style="fill:#bdbcbc;fill-opacity:1;fill-rule:nonzero;stroke:none"
   id="path18"
   transform="scale(0.1)" /><path
   d="m 1109.5,275.313 c 0,-30.918 -25.07,-55.977 -55.98,-55.977 H 755.473 V 71.9727 c 0,-30.918 -25.059,-55.9766 -55.977,-55.9766 h -86.25 c -30.918,0 -55.98,25.0586 -55.98,55.9766 V 566.27 c 0,30.914 25.062,55.976 55.98,55.976 h 440.274 c 30.91,0 55.98,-25.062 55.98,-55.976 V 275.313"
   style="fill:#ffffff;fill-opacity:1;fill-rule:nonzero;stroke:none"
   id="path20"
   transform="scale(0.1)" /><path
   d="m 1109.5,275.313 c 0,-30.918 -25.07,-55.977 -55.98,-55.977 H 755.473 V 71.9727 c 0,-30.918 -25.059,-55.9766 -55.977,-55.9766 h -86.25 c -30.918,0 -55.98,25.0586 -55.98,55.9766 V 566.27 c 0,30.914 25.062,55.976 55.98,55.976 h 440.274 c 30.91,0 55.98,-25.062 55.98,-55.976 z"
   style="fill:none;stroke:#231f20;stroke-width:32;stroke-linecap:butt;stroke-linejoin:miter;stroke-miterlimit:4;stroke-dasharray:none;stroke-opacity:1"
   id="path22"
   transform="scale(0.1)" /><path
   d="m 1664.36,566.27 c 0,30.914 25.05,55.976 55.97,55.976 h 173.88 c 30.91,0 55.98,-25.062 55.98,-55.976 V 71.9727 c 0,-30.918 -25.07,-55.9766 -55.98,-55.9766 h -173.88 c -30.92,0 -55.97,25.0586 -55.97,55.9766 V 566.27"
   style="fill:#ffffff;fill-opacity:1;fill-rule:nonzero;stroke:none"
   id="path24"
   transform="scale(0.1)" /><path
   d="m 1664.36,566.27 c 0,30.914 25.05,55.976 55.97,55.976 h 173.88 c 30.91,0 55.98,-25.062 55.98,-55.976 V 71.9727 c 0,-30.918 -25.07,-55.9766 -55.98,-55.9766 h -173.88 c -30.92,0 -55.97,25.0586 -55.97,55.9766 z"
   style="fill:none;stroke:#231f20;stroke-width:32;stroke-linecap:butt;stroke-linejoin:miter;stroke-miterlimit:4;stroke-dasharray:none;stroke-opacity:1"
   id="path26"
   transform="scale(0.1)" /><path
   d="m 1608.37,420.02 c 30.92,0 55.99,-25.059 55.99,-55.977 V 71.9727 c 0,-30.918 -25.07,-55.9766 -55.99,-55.9766 h -442.9 c -30.91,0 -55.97,25.0586 -55.97,55.9766 v 91.3793 c 0,30.914 25.06,55.984 55.97,55.984 h 326.39 -326.39 c -30.91,0 -55.97,25.059 -55.97,55.977 V 566.27 c 0,30.914 25.06,55.976 55.97,55.976 h 442.9 c 30.92,0 55.99,-25.062 55.99,-55.976 v -90.274 c 0,-30.918 -25.07,-55.976 -55.99,-55.976 h -323.18 323.18"
   style="fill:#ffffff;fill-opacity:1;fill-rule:nonzero;stroke:none"
   id="path28"
   transform="scale(0.1)" /><path
   d="m 1608.37,420.02 c 30.92,0 55.99,-25.059 55.99,-55.977 V 71.9727 c 0,-30.918 -25.07,-55.9766 -55.99,-55.9766 h -442.9 c -30.91,0 -55.97,25.0586 -55.97,55.9766 v 91.3793 c 0,30.914 25.06,55.984 55.97,55.984 h 326.39 -326.39 c -30.91,0 -55.97,25.059 -55.97,55.977 V 566.27 c 0,30.914 25.06,55.976 55.97,55.976 h 442.9 c 30.92,0 55.99,-25.062 55.99,-55.976 v -90.274 c 0,-30.918 -25.07,-55.976 -55.99,-55.976 h -323.18 z"
   style="fill:none;stroke:#231f20;stroke-width:32;stroke-linecap:butt;stroke-linejoin:miter;stroke-miterlimit:4;stroke-dasharray:none;stroke-opacity:1"
   id="path30"
   transform="scale(0.1)" /><path
   d="M 737.688,420.02 H 927.266"
   style="fill:none;stroke:#231f20;stroke-width:32;stroke-linecap:butt;stroke-linejoin:miter;stroke-miterlimit:4;stroke-dasharray:none;stroke-opacity:1"
   id="path32"
   transform="scale(0.1)" /><path
   d="m 110.316,865.238 v -46.609 c 16.036,-1.125 20.512,7.641 20.512,23.305 0,12.679 -3.726,23.304 -17.898,23.304 z M 91.668,740.5 v 140.59 h 22.379 c 16.035,0 36.551,-1.492 36.551,-37.664 0,-28.528 -11.196,-41.766 -40.282,-40.649 V 740.5 H 91.668"
   style="fill:#231f20;fill-opacity:1;fill-rule:nonzero;stroke:none"
   id="path34"
   transform="scale(0.1)" /><path
   d="m 234.004,802.777 -7.09,51.09 h -0.371 l -11.188,-71.418 h 22.375 z m 0.371,78.313 30.203,-140.59 h -18.832 l -5.219,27.41 H 212.559 L 207.34,740.5 h -18.277 l 30.582,140.59 h 14.73"
   style="fill:#231f20;fill-opacity:1;fill-rule:nonzero;stroke:none"
   id="path36"
   transform="scale(0.1)" /><path
   d="M 336.762,881.09 V 777.977 c 0,-18.086 5.41,-21.817 13.051,-21.817 12.867,0 13.988,8.203 14.175,19.77 v 105.16 h 18.645 v -99.758 c 0,-18.461 0.187,-42.699 -32.258,-42.699 -29.648,0 -32.262,20.137 -32.262,45.5 v 96.957 h 18.649"
   style="fill:#231f20;fill-opacity:1;fill-rule:nonzero;stroke:none"
   id="path38"
   transform="scale(0.1)" /><path
   d="M 465.074,881.09 V 756.719 h 31.328 V 740.5 H 446.43 v 140.59 h 18.644"
   style="fill:#231f20;fill-opacity:1;fill-rule:nonzero;stroke:none"
   id="path40"
   transform="scale(0.1)" /><path
   d="m 672.078,859.461 c -4.848,3.543 -9.504,5.969 -15.848,5.969 -10.253,0 -16.589,-8.395 -16.589,-18.09 0,-6.152 1.488,-10.442 5.218,-15.289 l 14.168,-15.477 c 12.684,-12.863 19.953,-22.187 19.953,-41.207 0,-19.765 -12.304,-36.734 -33.003,-36.734 -7.27,0 -14.731,2.051 -20.512,6.715 v 18.832 c 5.594,-4.102 11.191,-7.278 18.461,-7.278 11.562,0 16.406,9.145 16.406,19.582 0,27.969 -39.34,33.563 -39.34,70.485 0,19.765 10.438,35.984 31.512,35.984 7.086,0 13.797,-1.117 19.762,-4.656 l -0.188,-18.836"
   style="fill:#231f20;fill-opacity:1;fill-rule:nonzero;stroke:none"
   id="path42"
   transform="scale(0.1)" /><path
   d="m 790.504,861.887 c -3.727,1.863 -7.645,3.543 -11.934,3.543 -26.105,0 -26.289,-38.043 -26.289,-55.567 0,-18.648 1.489,-53.703 27.035,-53.703 4.102,0 7.649,0.934 11.188,2.801 v -16.41 c -4.66,-2.985 -9.508,-3.918 -14.918,-3.918 -38.035,0 -43.07,40.465 -43.07,69.922 0,28.16 3.539,74.398 41.765,74.398 6.34,0 10.817,-0.933 16.223,-4.101 v -16.965"
   style="fill:#231f20;fill-opacity:1;fill-rule:nonzero;stroke:none"
   id="path44"
   transform="scale(0.1)" /><path
   d="m 864.734,881.09 v -54.82 h 28.157 v 54.82 h 18.648 V 740.5 h -18.648 v 69.547 H 864.734 V 740.5 H 846.09 v 140.59 h 18.644"
   style="fill:#231f20;fill-opacity:1;fill-rule:nonzero;stroke:none"
   id="path46"
   transform="scale(0.1)" /><path
   d="M 1025.68,881.09 V 864.867 H 994.164 V 820.68 h 28.156 v -16.227 h -28.156 v -47.734 h 31.516 V 740.5 h -50.16 v 140.59 h 50.16"
   style="fill:#231f20;fill-opacity:1;fill-rule:nonzero;stroke:none"
   id="path48"
   transform="scale(0.1)" /><path
   d="m 1118.93,841 c 0,13.43 -1.68,24.613 -15.85,24.238 h -2.99 v -46.425 c 13.99,-0.93 18.84,8.019 18.84,22.187 z m -37.48,40.09 h 22.37 c 13.62,0 34.87,-0.742 34.87,-35.988 0,-13.239 -3.91,-33.375 -19.39,-36.172 l 25.92,-68.43 h -19.39 l -25.36,68.801 h -0.38 V 740.5 h -18.64 v 140.59"
   style="fill:#231f20;fill-opacity:1;fill-rule:nonzero;stroke:none"
   id="path50"
   transform="scale(0.1)" /><path
   d="m 1237.72,841 c 0,13.43 -1.68,24.613 -15.84,24.238 h -2.99 v -46.425 c 13.99,-0.93 18.83,8.019 18.83,22.187 z m -37.48,40.09 h 22.38 c 13.62,0 34.87,-0.742 34.87,-35.988 0,-13.239 -3.92,-33.375 -19.39,-36.172 l 25.91,-68.43 h -19.39 l -25.35,68.801 h -0.38 V 740.5 h -18.65 v 140.59"
   style="fill:#231f20;fill-opacity:1;fill-rule:nonzero;stroke:none"
   id="path52"
   transform="scale(0.1)" /><path
   d="m 1369.2,881.09 v -16.223 h -31.51 V 820.68 h 28.16 v -16.227 h -28.16 v -47.734 h 31.51 V 740.5 h -50.16 v 140.59 h 50.16"
   style="fill:#231f20;fill-opacity:1;fill-rule:nonzero;stroke:none"
   id="path54"
   transform="scale(0.1)" /><path
   d="m 1462.45,841 c 0,13.43 -1.68,24.613 -15.85,24.238 h -2.98 v -46.425 c 13.99,-0.93 18.83,8.019 18.83,22.187 z m -37.48,40.09 h 22.37 c 13.62,0 34.88,-0.742 34.88,-35.988 0,-13.239 -3.92,-33.375 -19.4,-36.172 l 25.92,-68.43 h -19.38 l -25.37,68.801 h -0.37 V 740.5 h -18.65 v 140.59"
   style="fill:#231f20;fill-opacity:1;fill-rule:nonzero;stroke:none"
   id="path56"
   transform="scale(0.1)" /><path
   d="m 1641.87,740.5 h -18.66 v 140.59 h 18.66 V 740.5"
   style="fill:#231f20;fill-opacity:1;fill-rule:nonzero;stroke:none"
   id="path58"
   transform="scale(0.1)" /><path
   d="m 1721.68,839.32 2.8,-47.172 V 740.5 h -18.65 v 140.59 h 17.9 l 32.82,-106.84 0.37,0.367 -4.47,56.317 v 50.156 h 18.64 V 740.5 h -17.34 l -32.81,108.332 -0.37,-0.371 1.11,-9.141"
   style="fill:#231f20;fill-opacity:1;fill-rule:nonzero;stroke:none"
   id="path60"
   transform="scale(0.1)" /><path
   d="m 1878.33,859.461 c -4.84,3.543 -9.5,5.969 -15.85,5.969 -10.25,0 -16.59,-8.395 -16.59,-18.09 0,-6.152 1.49,-10.442 5.22,-15.289 l 14.17,-15.477 c 12.68,-12.863 19.95,-22.187 19.95,-41.207 0,-19.765 -12.3,-36.734 -33,-36.734 -7.27,0 -14.73,2.051 -20.51,6.715 v 18.832 c 5.59,-4.102 11.19,-7.278 18.46,-7.278 11.56,0 16.41,9.145 16.41,19.582 0,27.969 -39.34,33.563 -39.34,70.485 0,19.765 10.44,35.984 31.51,35.984 7.08,0 13.8,-1.117 19.77,-4.656 l -0.2,-18.836"
   style="fill:#231f20;fill-opacity:1;fill-rule:nonzero;stroke:none"
   id="path62"
   transform="scale(0.1)" /><path
   d="m 1991.91,881.09 v -16.223 h -21.07 V 740.5 h -18.64 v 124.367 h -22.01 v 16.223 h 61.72"
   style="fill:#231f20;fill-opacity:1;fill-rule:nonzero;stroke:none"
   id="path64"
   transform="scale(0.1)" /><path
   d="m 2062.41,740.5 h -18.64 v 140.59 h 18.64 V 740.5"
   style="fill:#231f20;fill-opacity:1;fill-rule:nonzero;stroke:none"
   id="path66"
   transform="scale(0.1)" /><path
   d="m 2175.99,881.09 v -16.223 h -21.08 V 740.5 h -18.64 v 124.367 h -22.01 v 16.223 h 61.73"
   style="fill:#231f20;fill-opacity:1;fill-rule:nonzero;stroke:none"
   id="path68"
   transform="scale(0.1)" /><path
   d="M 2246.48,881.09 V 777.977 c 0,-18.086 5.41,-21.817 13.06,-21.817 12.86,0 13.99,8.203 14.17,19.77 v 105.16 h 18.64 v -99.758 c 0,-18.461 0.19,-42.699 -32.25,-42.699 -29.65,0 -32.26,20.137 -32.26,45.5 v 96.957 h 18.64"
   style="fill:#231f20;fill-opacity:1;fill-rule:nonzero;stroke:none"
   id="path70"
   transform="scale(0.1)" /><path
   d="m 2405.75,881.09 v -16.223 h -21.07 V 740.5 h -18.64 v 124.367 h -22.01 v 16.223 h 61.72"
   style="fill:#231f20;fill-opacity:1;fill-rule:nonzero;stroke:none"
   id="path72"
   transform="scale(0.1)" /></g></svg>
