<?xml version="1.0" encoding="UTF-8" standalone="no"?>
<svg
   xmlns:dc="http://purl.org/dc/elements/1.1/"
   xmlns:cc="http://creativecommons.org/ns#"
   xmlns:rdf="http://www.w3.org/1999/02/22-rdf-syntax-ns#"
   xmlns:svg="http://www.w3.org/2000/svg"
   xmlns="http://www.w3.org/2000/svg"
   xmlns:sodipodi="http://sodipodi.sourceforge.net/DTD/sodipodi-0.dtd"
   xmlns:inkscape="http://www.inkscape.org/namespaces/inkscape"
   shape-rendering="geometricPrecision"
   text-rendering="geometricPrecision"
   image-rendering="optimizeQuality"
   fill-rule="evenodd"
   clip-rule="evenodd"
   viewBox="0 0 500 500"
   version="1.1"
   id="svg896"
   sodipodi:docname="gauge-meter.svg"
   width="500"
   height="500"
   inkscape:version="1.0.2 (e86c8708, 2021-01-15)">
  <metadata
     id="metadata902">
    <rdf:RDF>
      <cc:Work
         rdf:about="">
        <dc:format>image/svg+xml</dc:format>
        <dc:type
           rdf:resource="http://purl.org/dc/dcmitype/StillImage" />
        <dc:title></dc:title>
      </cc:Work>
    </rdf:RDF>
  </metadata>
  <defs
     id="defs900" />
  <sodipodi:namedview
     pagecolor="#ffffff"
     bordercolor="#666666"
     borderopacity="1"
     objecttolerance="10"
     gridtolerance="10"
     guidetolerance="10"
     inkscape:pageopacity="0"
     inkscape:pageshadow="2"
     inkscape:window-width="1920"
     inkscape:window-height="1172"
     id="namedview898"
     showgrid="false"
     inkscape:zoom="1.9668798"
     inkscape:cx="157.33649"
     inkscape:cy="572.48034"
     inkscape:window-x="0"
     inkscape:window-y="1"
     inkscape:window-maximized="0"
     inkscape:current-layer="svg896" />
  <path
     d="m 393.43063,237.7249 c -13.85231,66.51459 -72.80042,116.48851 -143.43062,116.48851 -70.6302,0 -129.57832,-49.97392 -143.43063,-116.48851 h 69.44732 c 3.28467,13.98918 10.43078,26.48266 20.24569,36.29757 13.74479,13.75456 32.74895,22.26929 53.74738,22.26929 19.24857,0 36.91345,-7.28298 50.39428,-19.27789 1.15355,-0.91893 2.26799,-1.91606 3.34333,-2.9914 9.81491,-9.81491 16.96102,-22.30839 20.24569,-36.29757 z M 112.69881,441.57978 H 224.84686 V 413.8947 C 177.54173,408.18563 135.12451,386.5811 103.11852,354.56534 65.510995,316.96759 42.264128,265.02873 42.264128,207.6643 c 0,-57.35465 23.246867,-109.283737 60.854392,-146.881487 12.92361,-12.923616 27.44069,-24.68391 43.33615,-34.117563 60.50246,-35.9065358 149.12014,-35.5937101 209.16314,1.202424 15.09384,9.247913 28.91683,20.548744 41.27345,32.915139 37.59775,37.59775 60.84461,89.526837 60.84461,146.891257 0,57.35466 -23.24686,109.29352 -60.84461,146.89127 -32.01577,32.01576 -74.43299,53.62029 -121.74789,59.32936 v 27.68508 h 112.14806 c 19.37564,0 35.21245,15.90524 35.21245,35.21246 V 500 H 77.486357 v -23.20776 c 0,-19.37565 15.846582,-35.21246 35.212453,-35.21246 z M 250.00001,31.572705 c 97.27904,0 176.13069,78.851655 176.13069,176.130695 0,97.26927 -78.85165,176.1307 -176.13069,176.1307 -97.27905,0 -176.130701,-78.86143 -176.130701,-176.1307 0,-97.27904 78.851651,-176.130695 176.130701,-176.130695 z m -83.86664,55.575457 c -2.89364,-5.005213 -1.19265,-11.408366 3.80279,-14.31178 5.00521,-2.893639 11.40836,-1.182873 14.302,3.812564 l 13.0898,22.660318 c 2.89364,4.995436 1.19265,11.408366 -3.81256,14.302006 -4.99544,2.89364 -11.40837,1.19265 -14.302,-3.80279 z m -48.75195,58.909008 c -4.99544,-2.86431 -6.72576,-9.25769 -3.85167,-14.2629 2.86431,-4.99544 9.25769,-6.71598 14.25313,-3.85167 l 22.66032,13.08003 c 4.99544,2.86431 6.72575,9.25769 3.85167,14.2629 -2.86431,4.99544 -9.25769,6.71598 -14.25313,3.85167 z m 254.8357,-24.01916 c 4.99544,-2.86431 11.38883,-1.14377 14.25313,3.85167 2.8741,5.00521 1.14378,11.39859 -3.85167,14.2629 l -22.66032,13.08003 c -4.99543,2.86431 -11.38881,1.14377 -14.25312,-3.85167 -2.87409,-5.00521 -1.14377,-11.39859 3.85167,-14.2629 z M 313.25925,73.286069 c 2.8643,-4.995437 9.25769,-6.715979 14.25312,-3.851668 5.00522,2.864311 6.72576,9.257688 3.86145,14.262901 l -13.08003,22.650548 c -2.8741,4.99543 -9.2577,6.72575 -14.26291,3.85166 -4.99543,-2.86431 -6.71598,-9.25769 -3.85167,-14.253123 z M 237.80958,60.479763 c 0,-5.787277 4.69237,-10.48944 10.47966,-10.48944 5.79705,0 10.48944,4.702163 10.48944,10.48944 v 26.169833 c 0,5.787277 -4.69239,10.489439 -10.48944,10.489439 -5.78729,0 -10.47966,-4.702162 -10.47966,-10.489439 z m 28.8875,128.766917 c 11.02711,5.94369 18.53493,17.616 18.53493,31.03818 0,19.45386 -15.76838,35.22223 -35.22223,35.22223 -19.45385,0 -35.232,-15.76837 -35.232,-35.22223 0,-13.42218 7.50782,-25.09449 18.55448,-31.03818 v -55.30173 l 16.67752,-16.67753 16.6873,16.67753 z"
     id="path894"
     style="stroke-width:0.977581" />
</svg>
