<?xml version="1.0" encoding="UTF-8" standalone="no"?>
<svg
   xmlns:svg="http://www.w3.org/2000/svg"
   xmlns="http://www.w3.org/2000/svg"
   shape-rendering="geometricPrecision"
   text-rendering="geometricPrecision"
   image-rendering="optimizeQuality"
   fill-rule="evenodd"
   clip-rule="evenodd"
   viewBox="0 0 511.70999 511.70999"
   version="1.1"
   id="svg837"
   width="511.70999"
   height="511.70999">
  <path
     fill="#2b2727"
     d="m 295.125,58.65 c 0,-10.66 -4.36,-20.36 -11.4,-27.39 -7.03,-7.03 -16.72,-11.4 -27.38,-11.4 -10.66,0 -20.35,4.37 -27.39,11.4 -7.03,7.03 -11.39,16.73 -11.39,27.39 V 330.1 c -26.87,13.78 -45.25,41.75 -45.25,74.02 0,45.92 37.22,83.14 83.14,83.14 45.91,0 83.13,-37.22 83.13,-83.14 0,-31.55 -17.57,-58.99 -43.46,-73.08 z m 40.83,35.94 v -18 h 46.9 a 9,9 0 0 1 0,18 z m 0,49.14 v -18 h 46.9 a 9,9 0 0 1 0,18 z m 0,49.14 v -18 h 46.9 a 9,9 0 0 1 0,18 z m 0,49.14 v -18 h 46.9 a 9,9 0 0 1 0,18 z m 0,49.14 v -18 h 46.9 a 9,9 0 0 1 0,18 z m -20.97,23.34 c 28.97,19.28 48.06,52.22 48.06,89.63 0,59.42 -48.17,107.59 -107.59,107.59 -59.43,0 -107.6,-48.17 -107.6,-107.59 0,-38.17 19.88,-71.69 49.84,-90.79 V 58.65 c 0,-16.14 6.6,-30.81 17.22,-41.43 C 225.545,6.59 240.205,0 256.345,0 c 16.13,0 30.8,6.59 41.43,17.22 10.62,10.62 17.21,25.29 17.21,41.43 z"
     id="path833" />
  <path
     fill="#2b2727"
     d="M 272.375,345.35 V 185.5 h -33.85 v 159.85 c -25.53,7.34 -44.22,30.88 -44.22,58.77 0,33.77 27.38,61.14 61.15,61.14 33.76,0 61.14,-27.37 61.14,-61.14 0,-27.9 -18.68,-51.43 -44.22,-58.77 z"
     id="path835" />
</svg>
